# xmcd CD database file
#
# Track frame offsets:
#	150
#	13938
#	32693
#	46447
#	61952
#	78077
#	95039
#	110146
#	126191
#	148290
#	162060
#	183063
#	200832
#	214047
#	230376
#
# Disc length: 3343 seconds
#
# Revision: 0
# Processed by: cddbd v1.4PL0 Copyright (c) Steve Scherf et al.
# Submitted via: CDex 1.40Release
#
DISCID=d40d0d0f
DTITLE=Tim McGraw - Greatest Hits
DYEAR=2001
DGENRE=Country
TTITLE0=Indian Outlaw
TTITLE1=Don't Take The Girl
TTITLE2=She Never Let's It Go To Her Heart
TTITLE3=I Like It I Love It
TTITLE4=Just To See You Smile
TTITLE5=It's Your Love
TTITLE6=Where The Green Grass Grows
TTITLE7=For A Little While
TTITLE8=Please Remember Me
TTITLE9=Something Like That
TTITLE10=My Best Friend
TTITLE11=Maybe We Should Just Sleep On It
TTITLE12=Down On The Farm
TTITLE13=My Next Thirty Years
TTITLE14=Let's Make Love (with Faith Hill)
EXTD=YEAR: 2001 ID3G: 2
EXTT0=
EXTT1=
EXTT2=
EXTT3=
EXTT4=
EXTT5=
EXTT6=
EXTT7=
EXTT8=
EXTT9=
EXTT10=
EXTT11=
EXTT12=
EXTT13=
EXTT14=
PLAYORDER=
